PathFileType	4	(x/y/z)	S05_P20_T08
DataRate	CameraRate	NumFrames	NumMarkers	Units	OrigDataRate	OrigDataStartFrame	OrigNumFrames
240	240	10	50	mm	240	290	386
Frame#	Time	Sternum			R.Acromium			L.Acromium			Top.Head			R.ASIS			L.ASIS			R.PSIS			L.PSIS			R.Great.Tro			L.Great.Tro			R.Iliac.Crest			L.Iliac.Crest			V.Sacral			R.Thigh.Upper.Post			R.Thigh.Lower.Ant			R.Thigh.Lower.Post			R.Thigh.Upper.Ant			R.Knee.Lat			R.Knee.Med			R.Shank.Upper.Post			R.Shank.Lower.Ant			R.Shank.Lower.Post			R.Shank.Upper.Ant			R.Ankle.Lat			R.Ankle.Med			R.Heel.Upper			R.Heel.Med			R.Heel.Lat			R.Toe.Lat			R.Toe.Med			R.Toe.Tip			L.Thigh.Upper.Post			L.Thigh.Lower.Ant			L.Thigh.Lower.Post			L.Thigh.Upper.Ant			L.Knee.Lat			L.Shank.Upper.Post			L.Shank.Lower.Ant			L.Shank.Lower.Post			L.Shank.Upper.Ant			L.Ankle.Lat			L.Ankle.Med			L.Heel.Upper			L.Heel.Med			L.Heel.Lat			L.Toe.Lat			L.Toe.Med			L.Toe.Tip			Cervical.Spine			Back			
		X1	Y1	Z1	X2	Y2	Z2	X3	Y3	Z3	X4	Y4	Z4	X5	Y5	Z5	X6	Y6	Z6	X7	Y7	Z7	X8	Y8	Z8	X9	Y9	Z9	X10	Y10	Z10	X11	Y11	Z11	X12	Y12	Z12	X13	Y13	Z13	X14	Y14	Z14	X15	Y15	Z15	X16	Y16	Z16	X17	Y17	Z17	X18	Y18	Z18	X19	Y19	Z19	X20	Y20	Z20	X21	Y21	Z21	X22	Y22	Z22	X23	Y23	Z23	X24	Y24	Z24	X25	Y25	Z25	X26	Y26	Z26	X27	Y27	Z27	X28	Y28	Z28	X29	Y29	Z29	X30	Y30	Z30	X31	Y31	Z31	X32	Y32	Z32	X33	Y33	Z33	X34	Y34	Z34	X35	Y35	Z35	X36	Y36	Z36	X37	Y37	Z37	X38	Y38	Z38	X39	Y39	Z39	X40	Y40	Z40	X41	Y41	Z41	X42	Y42	Z42	X43	Y43	Z43	X44	Y44	Z44	X45	Y45	Z45	X46	Y46	Z46	X47	Y47	Z47	X48	Y48	Z48	X49	Y49	Z49	X50	Y50	Z50	

290	1.2042	208.35	1261.5	315.64	121.32	1526.3	464.07	122.74	1531.5	128.65	119.58	1834.4	277.62	123.14	1015.7	441.9	146.9	1019.2	193.39	-68.96	1033.3	340.53	-59.68	1037.2	249.15	44.557	935.65	501.83	66.331	938.64	111.94	32.773	1099.7	473.97	60.316	1095.3	139.2	-78.558	1000.2	306.02	165.39	733.76	514.07	238.58	679.43	467.19	181.6	645.41	498.03	217.88	765.8	482.33	189.83	548.52	483.8	212.76	534.07	353.82	8.0526	387.63	447.28	24.052	298.28	447.88	-30.872	324.52	425.53	64.641	361.73	467.99	-45.612	222.31	421.26	-11.934	239.73	338.07	-124.32	214.12	346.68	-124.97	180.66	317.73	-137.22	184.56	382.07	-11.977	94.163	458.61	43.535	86.961	349.51	98.818	78.047	405.79	96.196	701.05	127	182.79	637.5	153.4	116.52	609.22	145.42	170.54	726.07	134.75	139.65	520.66	154.53	70.926	320.66	156.97	136.09	261.1	165.43	66.37	249.76	176.96	136.57	330.72	150.78	89.34	112.83	189.93	125.3	130.53	275.02	29.162	68.322	245.44	43.278	43.57	277.02	31.432	40.415	216.98	210.06	38.985	151.76	240.99	51.993	269.38	300.26	62.275	210.84	70.032	1572.8	301.41	-51.98	1301.8	300.52
291	1.2083	213.38	1262.2	315.63	126.25	1526.9	464	128.18	1532.4	128.65	125.12	1835.1	278.13	128.06	1016.5	441.75	151.79	1019.7	193.26	-64.039	1034	340.41	-54.757	1038	249.03	49.669	936.59	501.83	70.866	939.2	111.89	37.664	1100.5	473.83	65.463	1095.9	139.1	-73.64	1001	305.91	171.83	735.44	513.93	245.36	681.63	466.93	188.61	647.21	497.78	224.07	767.86	482.15	197.34	550.11	483.37	220.39	536.11	353.49	18.736	385.08	446.4	36.718	296.14	447.4	-18.621	321.06	424.69	75.797	360.54	467.47	-31.031	218.53	420.68	2.6767	236.45	337.58	-109.22	208.22	345.71	-108.91	174.61	316.99	-121.5	178.46	381.21	5.5949	91.545	458.76	61.789	85.223	349.87	116.95	77.876	406.38	99.171	701.45	126.96	185.29	637.31	153.44	118.84	609.48	145.36	173.65	725.98	134.83	141.29	520.63	154.58	71.775	320.84	156.99	136.76	261.05	165.51	66.994	249.96	176.98	137.43	330.69	150.8	89.502	112.95	189.96	125.47	130.57	275.07	29.144	68.411	245.48	43.212	43.616	277.02	31.453	40.498	217	210.08	38.997	151.77	241.03	51.928	269.4	300.3	62.18	210.86	75.222	1573.4	301.32	-46.855	1302.5	300.08
292	1.2125	218.42	1262.9	315.64	131.16	1527.5	463.95	133.61	1533.2	128.66	130.67	1835.8	278.65	132.99	1017.3	441.62	156.68	1020.1	193.15	-59.11	1034.7	340.29	-49.831	1038.7	248.92	54.784	937.49	501.84	75.403	939.73	111.85	42.571	1101.3	473.7	70.611	1096.5	139.01	-68.714	1001.7	305.81	178.18	737.03	513.79	252.02	683.71	466.68	195.47	648.92	497.53	230.18	769.81	482	204.67	551.63	482.92	227.84	538.06	353.16	29.415	382.4	445.52	49.421	293.94	446.94	-6.3123	317.48	423.86	86.922	359.28	466.97	-16.32	214.68	420.16	17.423	233.1	337.15	-93.911	202.19	344.79	-92.593	168.46	316.29	-105.55	172.23	380.41	23.331	88.942	458.99	80.222	83.546	350.33	135.21	77.796	407.07	102.14	701.85	126.91	187.77	637.11	153.48	121.14	609.73	145.3	176.76	725.88	134.92	142.9	520.6	154.63	72.608	321.02	157.01	137.42	260.99	165.58	67.607	250.15	177	138.28	330.67	150.83	89.66	113.07	190	125.63	130.6	275.13	29.151	68.495	245.53	43.166	43.656	277.03	31.479	40.584	217.03	210.1	39.011	151.79	241.08	51.865	269.42	300.34	62.086	210.88	80.405	1574.1	301.23	-41.727	1303.2	299.65
293	1.2167	223.47	1263.6	315.66	136.07	1528.1	463.9	139.05	1534	128.68	136.21	1836.4	279.19	137.94	1018	441.5	161.57	1020.5	193.05	-54.173	1035.3	340.2	-44.902	1039.4	248.82	59.905	938.35	501.86	79.943	940.24	111.82	47.501	1102	473.58	75.755	1097	138.93	-63.78	1002.3	305.72	184.42	738.54	513.64	258.55	685.67	466.43	202.19	650.54	497.26	236.22	771.64	481.85	211.81	553.06	482.46	235.1	539.92	352.81	40.09	379.62	444.64	62.16	291.69	446.52	6.0554	313.81	423.05	98.014	357.96	466.49	-1.4813	210.78	419.7	32.297	229.69	336.77	-78.391	196.06	343.92	-76.027	162.24	315.67	-89.375	165.92	379.66	41.228	86.376	459.3	98.817	81.957	350.87	153.58	77.83	407.85	105.1	702.24	126.87	190.24	636.9	153.54	123.44	609.97	145.25	179.85	725.76	135.02	144.49	520.57	154.69	73.429	321.19	157.05	138.07	260.94	165.66	68.211	250.34	177.04	139.12	330.63	150.87	89.817	113.19	190.04	125.78	130.64	275.19	29.184	68.573	245.57	43.144	43.691	277.04	31.508	40.671	217.05	210.12	39.027	151.8	241.12	51.801	269.43	300.38	61.993	210.9	85.583	1574.7	301.15	-36.594	1303.8	299.23
294	1.2208	228.53	1264.3	315.7	140.97	1528.6	463.86	144.48	1534.8	128.7	141.75	1837.1	279.74	142.9	1018.7	441.39	166.47	1020.8	192.95	-49.226	1036	340.11	-39.969	1040	248.74	65.034	939.18	501.88	84.486	940.72	111.8	52.458	1102.7	473.47	80.891	1097.5	138.86	-58.836	1003	305.65	190.56	739.95	513.49	264.96	687.5	466.19	208.75	652.06	496.98	242.18	773.34	481.72	218.75	554.4	481.99	242.17	541.68	352.45	50.768	376.73	443.77	74.932	289.4	446.14	18.483	310.05	422.26	109.07	356.59	466.03	13.486	206.85	419.3	47.292	226.24	336.47	-62.663	189.86	343.12	-59.218	155.97	315.11	-72.965	159.55	378.99	59.277	83.872	459.69	117.56	80.48	351.5	172.04	78.001	408.72	108.05	702.61	126.83	192.7	636.68	153.6	125.72	610.21	145.2	182.94	725.63	135.12	146.05	520.54	154.76	74.238	321.36	157.1	138.71	260.9	165.74	68.808	250.53	177.1	139.96	330.59	150.92	89.972	113.31	190.08	125.94	130.67	275.26	29.239	68.649	245.62	43.149	43.721	277.06	31.542	40.762	217.08	210.14	39.044	151.81	241.16	51.736	269.44	300.42	61.9	210.91	90.756	1575.3	301.08	-31.457	1304.4	298.83
295	1.225	233.61	1264.9	315.75	145.86	1529.2	463.83	149.92	1535.5	128.74	147.3	1837.7	280.29	147.88	1019.4	441.29	171.38	1021.1	192.85	-44.268	1036.6	340.05	-35.031	1040.6	248.68	70.174	939.96	501.91	89.035	941.17	111.8	57.444	1103.4	473.36	86.013	1098	138.8	-53.882	1003.6	305.59	196.59	741.25	513.33	271.23	689.18	465.94	215.16	653.46	496.68	248.06	774.91	481.59	225.51	555.65	481.49	249.05	543.33	352.07	61.451	373.75	442.91	87.736	287.08	445.8	30.971	306.21	421.51	120.1	355.16	465.59	28.579	202.91	418.97	62.399	222.78	336.23	-46.732	183.6	342.4	-42.171	149.68	314.65	-56.329	153.14	378.4	77.474	81.451	460.16	136.43	79.138	352.22	190.59	78.33	409.67	111.01	702.97	126.79	195.14	636.45	153.67	128	610.44	145.17	186.01	725.48	135.22	147.61	520.5	154.83	75.038	321.53	157.17	139.34	260.85	165.82	69.398	250.72	177.16	140.79	330.55	150.99	90.128	113.44	190.13	126.1	130.7	275.33	29.317	68.723	245.66	43.183	43.747	277.09	31.58	40.856	217.11	210.16	39.062	151.82	241.21	51.669	269.46	300.46	61.804	210.93	95.927	1575.8	301.01	-26.317	1305	298.44
296	1.2292	238.69	1265.5	315.81	150.76	1529.7	463.81	155.35	1536.2	128.78	152.84	1838.3	280.85	152.89	1020	441.2	176.29	1021.4	192.76	-39.298	1037.1	340	-30.087	1041.2	248.63	75.325	940.69	501.95	93.59	941.58	111.82	62.463	1104	473.27	91.12	1098.4	138.75	-48.917	1004.1	305.56	202.53	742.44	513.17	277.38	690.71	465.7	221.42	654.75	496.37	253.87	776.33	481.47	232.07	556.78	480.98	255.75	544.87	351.67	72.143	370.69	442.06	100.57	284.75	445.5	43.521	302.33	420.8	131.1	353.69	465.18	43.797	198.97	418.72	77.608	219.33	336.06	-30.6	177.32	341.76	-24.896	143.39	314.27	-39.469	146.72	377.9	95.811	79.135	460.71	155.41	77.952	353.02	209.2	78.834	410.71	113.97	703.32	126.76	197.58	636.21	153.76	130.28	610.65	145.14	189.09	725.32	135.33	149.15	520.46	154.9	75.832	321.7	157.24	139.96	260.81	165.9	69.984	250.9	177.24	141.62	330.5	151.06	90.285	113.57	190.18	126.26	130.73	275.41	29.414	68.796	245.71	43.247	43.769	277.12	31.623	40.954	217.14	210.18	39.081	151.83	241.26	51.6	269.47	300.49	61.706	210.95	101.1	1576.3	300.95	-21.172	1305.5	298.07
297	1.2333	243.78	1266	315.89	155.65	1530.1	463.8	160.77	1536.8	128.84	158.37	1838.8	281.42	157.91	1020.5	441.11	181.22	1021.7	192.66	-34.314	1037.6	339.98	-25.137	1041.7	248.61	80.488	941.36	502	98.153	941.96	111.85	67.516	1104.6	473.18	96.211	1098.8	138.7	-43.941	1004.6	305.54	208.35	743.5	512.99	283.39	692.08	465.44	227.52	655.9	496.03	259.59	777.61	481.35	238.46	557.81	480.44	262.26	546.28	351.24	82.848	367.55	441.24	113.43	282.41	445.24	56.132	298.4	420.13	142.07	352.18	464.79	59.136	195.05	418.55	92.911	215.9	335.97	-14.272	171.03	341.23	-7.4011	137.14	314	-22.391	140.31	377.5	114.28	76.946	461.34	174.48	76.941	353.9	227.87	79.532	411.82	116.93	703.66	126.73	200.02	635.96	153.85	132.56	610.86	145.13	192.16	725.14	135.44	150.68	520.42	154.98	76.621	321.87	157.33	140.58	260.77	165.98	70.565	251.09	177.33	142.44	330.44	151.14	90.443	113.7	190.23	126.42	130.76	275.49	29.529	68.869	245.77	43.339	43.787	277.17	31.67	41.056	217.17	210.21	39.101	151.84	241.31	51.529	269.48	300.53	61.603	210.97	106.26	1576.8	300.9	-16.023	1305.9	297.72
298	1.2375	248.88	1266.5	315.97	160.55	1530.6	463.8	166.2	1537.4	128.9	163.9	1839.3	282	162.95	1021	441.03	186.15	1021.9	192.57	-29.317	1038.1	339.97	-20.178	1042.2	248.6	85.662	941.99	502.05	102.73	942.31	111.89	72.603	1105.1	473.1	101.29	1099.1	138.66	-38.952	1005.1	305.54	214.07	744.44	512.79	289.27	693.27	465.18	233.46	656.92	495.68	265.24	778.72	481.23	244.66	558.72	479.87	268.59	547.55	350.77	93.57	364.34	440.45	126.32	280.08	445.04	68.807	294.44	419.51	153.02	350.64	464.43	74.594	191.18	418.46	108.29	212.51	335.95	2.2486	164.75	340.8	10.301	130.94	313.84	-5.1004	133.94	377.21	132.86	74.904	462.05	193.63	76.123	354.86	246.56	80.436	413	119.89	703.98	126.71	202.46	635.7	153.95	134.84	611.06	145.12	195.23	724.95	135.56	152.2	520.37	155.07	77.407	322.04	157.42	141.19	260.73	166.07	71.141	251.29	177.44	143.27	330.38	151.22	90.603	113.83	190.29	126.58	130.78	275.58	29.658	68.944	245.83	43.459	43.804	277.21	31.72	41.163	217.2	210.23	39.121	151.86	241.36	51.454	269.49	300.57	61.496	210.98	111.43	1577.2	300.85	-10.871	1306.4	297.39
299	1.2417	253.99	1266.9	316.06	165.45	1530.9	463.8	171.62	1537.9	128.97	169.43	1839.7	282.57	168.01	1021.5	440.95	191.1	1022.1	192.47	-24.304	1038.5	339.99	-15.21	1042.7	248.62	90.847	942.55	502.1	107.31	942.62	111.95	77.726	1105.6	473.04	106.34	1099.4	138.64	-33.951	1005.6	305.57	219.68	745.24	512.59	295.01	694.3	464.91	239.24	657.79	495.3	270.81	779.67	481.11	250.69	559.5	479.27	274.73	548.69	350.27	104.31	361.09	439.7	139.24	277.78	444.88	81.543	290.48	418.95	163.94	349.09	464.1	90.164	187.37	418.46	123.75	209.19	336	18.955	158.52	340.49	28.198	124.83	313.79	12.395	127.64	377.03	151.56	73.027	462.85	212.82	75.512	355.89	265.27	81.561	414.24	122.86	704.28	126.69	204.9	635.43	154.06	137.12	611.24	145.13	198.31	724.74	135.67	153.72	520.32	155.16	78.192	322.21	157.53	141.81	260.69	166.16	71.715	251.48	177.56	144.1	330.32	151.31	90.766	113.96	190.36	126.75	130.8	275.67	29.797	69.02	245.89	43.602	43.818	277.26	31.773	41.273	217.24	210.25	39.141	151.87	241.41	51.375	269.5	300.61	61.383	211	116.61	1577.6	300.81	-5.7138	1306.8	297.09
